<svg data-v-0dd9719b="" version="1.0" xmlns="http://www.w3.org/2000/svg" xmlns:xlink="http://www.w3.org/1999/xlink" width="100%" height="100%" viewBox="0 0 340.000000 250.000000" preserveAspectRatio="xMidYMid meet" color-interpolation-filters="sRGB" style="margin: auto;"> <rect data-v-0dd9719b="" x="0" y="0" width="100%" height="100%" fill="#fff" fill-opacity="1" class="background"></rect> <rect data-v-0dd9719b="" x="0" y="0" width="100%" height="100%" fill="url(#watermark)" fill-opacity="1" class="watermarklayer"></rect> <g data-v-0dd9719b="" fill="#333" class="icon-text-wrapper icon-svg-group iconsvg" transform="translate(48.349998474121094,93.5283870698487)"><g class="iconsvg-imagesvg" transform="translate(0,0)"><g><rect fill="#333" fill-opacity="0" stroke-width="2" x="0" y="0" width="60" height="62.94322521085981" class="image-rect"></rect> <svg x="0" y="0" width="60" height="62.94322521085981" filtersec="colorsb7096269262" class="image-svg-svg primary" style="overflow: visible;"><svg xmlns="http://www.w3.org/2000/svg" viewBox="-0.0009527206420898438 0.0028464198112487793 95.31793975830078 99.99372863769531"><path d="M28.32 28.9c-3.09-.5-5.36-.11-6.39 1.32-3 4.14 5.63 15.4 19.2 25.14s27 14.29 30 10.15c1-1.43.67-3.71-.79-6.48 5.31 6.5 7.6 12.08 5.53 15-3.83 5.35-21.15-.52-38.68-13.1S8.54 33.79 12.38 28.44c2.07-2.89 8.08-2.5 15.94.46z" fill="#333"></path><path d="M70.81 78.71c4.54.73 7.87.15 9.38-1.95 4.36-6.07-8.25-22.58-28.19-36.87S12.42 18.93 8.07 25c-1.51 2.1-1 5.44 1.15 9.5C1.43 25-1.93 16.79 1.11 12.56c5.63-7.84 31 .76 56.73 19.21s42 39.77 36.36 47.6c-3.04 4.24-11.86 3.63-23.39-.66z" fill="#ec1b23"></path><path d="M54.21 27.8c2.53-1.75 4.71-2.37 6.23-1.53 4.38 2.41 1.53 16-6.38 30.4S36.19 80.76 31.8 78.35c-1.51-.83-2.16-3-2-6.07-2 8-1.63 13.91 1.43 15.59 5.66 3.12 18.52-9.41 28.73-28s13.89-36.13 8.23-39.24c-3.1-1.63-8.27 1.23-13.98 7.17z" fill="#333"></path><path d="M38.75 88.82c-3.71 2.56-6.91 3.46-9.13 2.24-6.43-3.53-2.25-23.5 9.35-44.6s26.22-35.33 32.65-31.8c2.22 1.23 3.17 4.41 3 8.92C77.48 11.83 77 3.16 72.51.7c-8.3-4.57-27.16 13.81-42.13 41S10 94.74 18.31 99.3c4.48 2.47 12.06-1.77 20.44-10.48z" fill="#ec1b23"></path></svg></svg> <!----></g></g> <g transform="translate(67,16.09661293029785)"><g data-gra="path-name" fill-rule="" class="tp-name iconsvg-namesvg"><g transform="scale(1)"><g><path d="M27.69-20.77L27.69-20.77 23.83-20.77Q22.38-26.73 15.62-26.89L15.62-26.89Q6.28-26.4 5.96-14.97L5.96-14.97Q5.96-2.74 15.78-2.74L15.78-2.74Q22.54-2.9 24.15-10.95L24.15-10.95 28.01-10.95Q26.24 0.16 14.97 0.48L14.97 0.48Q2.09 0 1.77-14.81L1.77-14.81Q2.42-29.62 15.62-30.27L15.62-30.27Q26.08-29.95 27.69-20.77ZM52.16-10.95L52.16-29.46 56.19-29.46 56.19-10.47Q55.71 0.16 44.11 0.48L44.11 0.48Q33.33 0.16 32.84-9.82L32.84-9.82 32.84-29.46 36.87-29.46 36.87-10.95Q37.03-2.9 44.28-2.74L44.28-2.74Q52.16-2.9 52.16-10.95L52.16-10.95ZM83.88-20.93L83.88-20.93 80.18-20.93Q79.86-26.57 72.77-26.89L72.77-26.89Q66.17-26.73 66.17-21.74L66.17-21.74Q66.17-18.52 69.71-18.03L69.71-18.03 78.09-16.1Q84.69-14.49 84.69-8.05L84.69-8.05Q84.53 0.16 73.09 0.48L73.09 0.48Q66.82 0.48 64.24-2.09L64.24-2.09Q61.02-4.51 61.18-9.5L61.18-9.5 65.04-9.5Q65.21-2.74 73.09-2.58L73.09-2.58Q80.82-2.74 80.98-7.57L80.98-7.57Q81.63-11.59 74.54-12.88L74.54-12.88 68.43-14.17Q62.15-15.94 62.15-21.25L62.15-21.25Q62.63-29.95 72.45-30.27L72.45-30.27Q83.56-30.27 83.88-20.93ZM97.25-26.08L87.26-26.08 87.26-29.46 111.09-29.46 111.09-26.08 101.11-26.08 101.11 0 97.25 0 97.25-26.08ZM115.28-29.46L119.3-29.46 119.3 0 115.28 0 115.28-29.46ZM150.7-20.77L150.7-20.77 146.83-20.77Q145.38-26.73 138.62-26.89L138.62-26.89Q129.28-26.4 128.96-14.97L128.96-14.97Q128.96-2.74 138.78-2.74L138.78-2.74Q145.55-2.9 147.16-10.95L147.16-10.95 151.02-10.95Q149.25 0.16 137.98 0.48L137.98 0.48Q125.1 0 124.78-14.81L124.78-14.81Q125.42-29.62 138.62-30.27L138.62-30.27Q149.09-29.95 150.7-20.77ZM177.26-20.93L177.26-20.93 173.56-20.93Q173.24-26.57 166.15-26.89L166.15-26.89Q159.55-26.73 159.55-21.74L159.55-21.74Q159.55-18.52 163.09-18.03L163.09-18.03 171.47-16.1Q178.07-14.49 178.07-8.05L178.07-8.05Q177.91 0.16 166.48 0.48L166.48 0.48Q160.2 0.48 157.62-2.09L157.62-2.09Q154.4-4.51 154.56-9.5L154.56-9.5 158.43-9.5Q158.59-2.74 166.48-2.58L166.48-2.58Q174.2-2.74 174.36-7.57L174.36-7.57Q175.01-11.59 167.92-12.88L167.92-12.88 161.81-14.17Q155.53-15.94 155.53-21.25L155.53-21.25Q156.01-29.95 165.83-30.27L165.83-30.27Q176.94-30.27 177.26-20.93Z" transform="translate(-1.7699999809265137, 30.270000457763672)"></path></g> <!----> <!----> <!----> <!----> <!----> <!----> <!----></g></g> <!----></g></g><defs v-gra="od"></defs></svg>